<?xml version="1.0" encoding="utf-8"?>
<!-- Generator: Adobe Illustrator 24.1.2, SVG Export Plug-In . SVG Version: 6.00 Build 0)  -->
<svg version="1.1" id="Warstwa_1" xmlns="http://www.w3.org/2000/svg" xmlns:xlink="http://www.w3.org/1999/xlink" x="0px" y="0px"
	 viewBox="0 0 430 430" style="enable-background:new 0 0 430 430;" xml:space="preserve">
<style type="text/css">
	.st0{fill:#121331;}
	.st1{fill:#08A88A;}
	.st2{fill:none;stroke:#121331;stroke-width:12;stroke-linecap:round;stroke-linejoin:round;stroke-miterlimit:10;}
	.st3{fill:#00A689;}
</style>
<g>
	<g>
		<path class="st1" d="M174.97,209H121.6c-3.31,0-6,2.69-6,6s2.69,6,6,6h53.37c3.31,0,6-2.69,6-6S178.28,209,174.97,209z"/>
		<path class="st1" d="M195.66,215c0,3.31,2.69,6,6,6h26.69c3.31,0,6-2.69,6-6s-2.69-6-6-6h-26.69
			C198.34,209,195.66,211.68,195.66,215z"/>
		<path class="st1" d="M207.66,81.57c0-3.31-2.69-6-6-6h-26.69c-3.31,0-6,2.69-6,6v93.4c0,3.31,2.69,6,6,6s6-2.69,6-6v-87.4h20.69
			C204.97,87.57,207.66,84.88,207.66,81.57z"/>
		<path class="st1" d="M305.96,130.04h44.91c3.31,0,6-2.69,6-6V79.13c0-3.31-2.69-6-6-6h-44.91c-3.31,0-6,2.69-6,6v44.91
			C299.96,127.35,302.65,130.04,305.96,130.04z M311.96,85.13h32.91v32.91h-32.91V85.13z"/>
		<path class="st1" d="M79.13,130.04h44.91c3.31,0,6-2.69,6-6V79.13c0-3.31-2.69-6-6-6H79.13c-3.31,0-6,2.69-6,6v44.91
			C73.13,127.35,75.81,130.04,79.13,130.04z M85.13,85.13h32.91v32.91H85.13V85.13z"/>
		<path class="st1" d="M124.04,299.96H79.13c-3.31,0-6,2.69-6,6v44.91c0,3.31,2.69,6,6,6h44.91c3.31,0,6-2.69,6-6v-44.91
			C130.04,302.65,127.35,299.96,124.04,299.96z M118.04,344.87H85.13v-32.91h32.91V344.87z"/>
		<path class="st1" d="M375.12,289.06h-20.69v-60.72c0-3.31-2.69-6-6-6h-74.06v-28.03h34.03c3.31,0,6-2.69,6-6v-34.23
			c0-3.31-2.69-6-6-6s-6,2.69-6,6v28.23h-34.03c-3.31,0-6,2.69-6,6v40.03c0,3.31,2.69,6,6,6h74.06v54.72H314.4v-34.03
			c0-3.31-2.69-6-6-6h-66.72c-3.31,0-6,2.69-6,6s2.69,6,6,6h60.72v34.03v66.37v7.69H194.31v-41.37H215c3.31,0,6-2.69,6-6
			s-2.69-6-6-6h-26.69c-3.31,0-6,2.69-6,6v53.37c0,3.31,2.69,6,6,6H308.4c3.31,0,6-2.69,6-6v-7.69h60.72c3.31,0,6-2.69,6-6v-66.37
			C381.12,291.74,378.43,289.06,375.12,289.06z M369.12,355.43H314.4v-54.37h54.72V355.43z"/>
	</g>
	<g>
		<path class="st0" d="M375.12,48.88h-93.4c-3.31,0-6,2.69-6,6v93.4c0,3.31,2.69,6,6,6h93.4c3.31,0,6-2.69,6-6v-93.4
			C381.12,51.57,378.43,48.88,375.12,48.88z M369.12,142.29h-81.4v-81.4h81.4V142.29z"/>
		<path class="st0" d="M54.88,154.29h93.4c3.31,0,6-2.69,6-6v-93.4c0-3.31-2.69-6-6-6h-93.4c-3.31,0-6,2.69-6,6v93.4
			C48.88,151.6,51.57,154.29,54.88,154.29z M60.88,60.88h81.4v81.4h-81.4V60.88z"/>
		<path class="st0" d="M148.28,275.71h-93.4c-3.31,0-6,2.69-6,6v93.4c0,3.31,2.69,6,6,6h93.4c3.31,0,6-2.69,6-6v-93.4
			C154.28,278.4,151.6,275.71,148.28,275.71z M142.28,369.12h-81.4v-81.4h81.4V369.12z"/>
		<path class="st0" d="M375.12,182.31H247.69V140.6v-19V68.22c0-3.31-2.69-6-6-6h-40.03c-3.31,0-6,2.69-6,6v40.03c0,3.31,2.69,6,6,6
			s6-2.69,6-6V74.22h28.03v47.37v13h-34.03c-3.31,0-6,2.69-6,6v28.37h-20.69c-3.31,0-6,2.69-6,6V215c0,3.31,2.69,6,6,6h20.69v28.03
			H127.6v-60.72c0-3.31-2.69-6-6-6H68.22c-3.31,0-6,2.69-6,6v66.72c0,3.31,2.69,6,6,6h26.69c3.31,0,6-2.69,6-6s-2.69-6-6-6H74.22
			v-54.72h41.37v60.72c0,3.31,2.69,6,6,6h74.06v34.03c0,3.31,2.69,6,6,6h34.03v47.37c0,3.31,2.69,6,6,6h39.69c3.31,0,6-2.69,6-6
			v-53.37c0-3.31-2.69-6-6-6h-33.69v-34.03c0-3.31-2.69-6-6-6h-34.03V215c0-3.31-2.69-6-6-6h-20.69v-28.03h20.69c3.31,0,6-2.69,6-6
			V146.6h28.03v41.71c0,3.31,2.69,6,6,6h127.43v47.37c0,3.31,2.69,6,6,6c3.31,0,6-2.69,6-6v-53.37
			C381.12,185,378.43,182.31,375.12,182.31z M247.69,301.06h27.69v41.37h-27.69V301.06z M207.66,261.03h28.03v28.03h-28.03V261.03z"
			/>
		<path class="st0" d="M348.43,322.75h-13.34c-3.31,0-6,2.69-6,6s2.69,6,6,6h13.34c3.31,0,6-2.69,6-6S351.75,322.75,348.43,322.75z"
			/>
	</g>
</g>
</svg>
